<?xml version="1.0" standalone="no"?>
<!DOCTYPE svg PUBLIC "-//W3C//DTD SVG 20010904//EN"
 "http://www.w3.org/TR/2001/REC-SVG-20010904/DTD/svg10.dtd">
<svg version="1.0" xmlns="http://www.w3.org/2000/svg"
 width="1184.000000pt" height="1184.000000pt" viewBox="0 0 1184.000000 1184.000000"
 preserveAspectRatio="xMidYMid meet">
<metadata>
Created by potrace 1.14, written by Peter Selinger 2001-2017
</metadata>
<g transform="translate(0.000000,1184.000000) scale(0.100000,-0.100000)"
fill="#000000" stroke="none">
<path d="M7990 9003 c-19 -8 -83 -35 -141 -59 -90 -38 -109 -50 -122 -77 -16
-32 -28 -64 -32 -82 -2 -6 -15 -47 -30 -92 -32 -94 -29 -140 11 -172 23 -18
65 -122 78 -193 3 -12 5 -23 6 -23 1 0 3 -28 4 -63 4 -90 22 -107 117 -104 67
3 72 1 102 -28 32 -31 32 -32 12 -48 -11 -9 -28 -27 -36 -39 l-16 -23 -12 24
c-21 39 -57 51 -148 51 -75 0 -83 2 -83 19 0 50 -113 271 -169 331 -16 16 -40
49 -55 73 -14 23 -31 42 -36 42 -5 0 -31 19 -58 43 -143 125 -190 157 -332
227 -85 42 -148 68 -184 76 -11 2 -47 12 -80 23 -34 11 -72 22 -86 25 -14 2
-45 9 -70 15 -25 5 -61 13 -80 16 -19 3 -60 10 -90 16 -108 21 -127 22 -290
22 -179 0 -207 -1 -260 -14 -37 -9 -163 -27 -240 -35 -25 -2 -76 -15 -115 -29
-38 -14 -94 -32 -124 -41 -126 -34 -338 -134 -449 -211 -37 -26 -69 -49 -72
-53 -3 -3 -15 -13 -27 -21 -126 -86 -331 -307 -379 -409 -4 -8 -10 -17 -14
-20 -9 -7 -70 -155 -87 -214 -8 -27 -18 -45 -21 -40 -26 35 -151 68 -259 68
-49 0 -51 1 -43 22 5 12 7 24 4 26 -2 3 7 17 20 31 13 14 21 28 18 31 -3 3 1
6 9 7 8 0 23 2 34 4 11 2 39 6 61 10 25 3 50 15 63 29 24 25 46 96 30 96 -5 0
-2 17 5 38 8 20 24 74 36 120 15 63 27 89 48 107 44 38 38 102 -26 251 -52
118 -64 135 -117 150 -5 2 -56 17 -112 34 -56 17 -113 29 -125 26 -47 -8 -301
-106 -319 -122 -27 -24 -35 -80 -16 -118 9 -20 12 -38 7 -47 -5 -8 -23 -57
-40 -108 -16 -51 -40 -105 -51 -120 -34 -47 -27 -88 35 -207 54 -102 56 -109
44 -138 -7 -17 -13 -33 -14 -36 0 -3 -6 -23 -13 -45 l-13 -40 -201 0 c-254 -1
-255 -1 -300 -115 -33 -80 -128 -347 -133 -369 -3 -13 -9 -33 -15 -43 -6 -10
-35 -89 -65 -176 -43 -121 -54 -166 -51 -195 6 -40 38 -84 71 -96 10 -4 -28
-8 -85 -8 -151 0 -211 -5 -239 -19 -45 -22 -340 -329 -342 -355 -2 -43 3 -74
18 -96 14 -23 14 -23 -41 -23 -78 0 -129 -23 -151 -68 -10 -20 -19 -39 -19
-42 -1 -3 -7 -18 -14 -35 -60 -143 -67 -183 -40 -236 6 -12 -29 -53 -144 -170
-84 -85 -157 -166 -163 -179 -18 -42 -7 -92 29 -123 l31 -27 -84 -87 c-47 -48
-88 -90 -91 -93 -30 -26 -50 -104 -37 -143 28 -83 68 -98 275 -100 l163 -2 -2
-45 c-2 -47 29 -160 43 -160 5 0 9 -6 9 -13 0 -23 71 -87 111 -98 33 -10 41
-19 56 -57 17 -46 58 -102 73 -102 5 0 20 -10 34 -22 36 -33 77 -66 104 -84
l24 -16 -54 -49 c-29 -27 -83 -65 -119 -85 -42 -22 -103 -70 -165 -130 -112
-107 -166 -143 -226 -150 -23 -3 -45 -7 -50 -10 -4 -3 -17 -7 -28 -9 -34 -7
-79 -45 -99 -83 -15 -30 -36 -108 -43 -159 -1 -5 -7 -26 -14 -48 -14 -49 -10
-95 17 -189 12 -39 22 -99 24 -133 6 -131 111 -191 227 -132 25 13 43 17 47
11 9 -14 112 -43 138 -38 36 7 66 27 96 62 17 21 38 34 51 34 13 0 41 6 62 13
22 7 46 12 54 11 8 -1 21 -2 28 -3 6 0 12 -12 12 -26 0 -41 40 -92 81 -104 58
-17 71 -14 182 44 l106 55 20 -44 c10 -24 32 -53 47 -63 35 -22 101 -22 135 0
22 15 28 15 45 2 19 -12 111 -26 173 -25 23 0 123 48 129 63 2 4 8 7 14 7 5 0
37 16 70 36 45 25 63 32 69 23 4 -7 5 -18 2 -26 -8 -21 25 -96 51 -115 51 -37
94 -29 179 31 60 42 126 54 134 23 6 -25 71 -55 106 -48 27 5 111 46 159 78
27 19 58 15 58 -7 0 -7 11 -22 25 -32 19 -14 30 -36 41 -84 8 -37 25 -77 39
-93 14 -16 25 -32 25 -35 0 -3 21 -20 48 -38 42 -27 115 -52 179 -59 11 -1 31
-5 43 -9 12 -4 32 -8 43 -10 12 -2 40 -6 62 -9 22 -4 47 -8 55 -11 8 -2 29 -7
45 -10 17 -2 41 -7 55 -10 14 -3 61 -12 105 -21 44 -8 148 -29 230 -45 83 -17
161 -32 175 -34 14 -2 71 -13 128 -24 56 -11 117 -23 135 -26 17 -3 40 -8 50
-11 10 -3 30 -7 45 -9 15 -3 38 -7 52 -10 45 -9 144 -27 167 -30 11 -2 29 -6
40 -9 10 -3 34 -8 53 -11 19 -3 49 -9 65 -13 43 -11 52 -10 255 40 69 17 138
32 153 34 15 2 37 9 48 15 11 6 23 8 26 5 3 -2 16 -1 29 4 14 6 35 12 47 14
21 4 268 62 392 92 33 8 69 16 80 18 11 2 61 14 110 25 50 12 101 24 115 27
14 3 93 21 175 41 83 19 162 36 177 38 15 2 44 8 65 14 21 6 53 13 71 16 63
11 153 95 178 167 9 26 23 37 95 68 68 29 93 36 131 32 45 -4 48 -6 58 -40 6
-21 16 -44 23 -53 16 -21 79 -39 109 -31 24 6 145 72 189 103 25 17 29 17 114
0 92 -19 116 -18 150 6 11 7 38 13 61 13 45 0 49 -5 68 -92 8 -36 46 -60 99
-63 47 -3 70 7 196 84 77 48 88 51 134 48 37 -3 60 1 85 15 26 14 41 17 65 10
41 -11 160 -7 213 7 22 6 77 13 122 15 111 6 155 32 167 97 2 11 11 26 20 35
28 29 58 108 60 164 4 76 -32 183 -85 259 -24 33 -46 61 -49 61 -3 0 -22 15
-42 34 -48 46 -174 111 -239 122 -33 6 -113 45 -106 51 10 10 -34 82 -63 103
-37 26 -97 32 -133 14 -15 -8 -31 -14 -35 -14 -4 0 -19 30 -31 67 -26 72 -67
140 -116 188 -37 36 -167 121 -249 163 l-58 29 48 18 c68 25 194 92 223 120
14 13 50 36 80 52 65 35 114 100 124 165 4 27 17 54 35 74 30 32 73 108 66
116 -2 2 40 3 94 2 163 -3 207 23 246 149 14 44 27 87 29 96 10 56 52 166 71
189 12 15 30 54 40 87 10 33 24 81 32 106 7 25 15 54 18 65 2 10 20 70 39 133
40 127 43 156 20 190 -28 39 -68 48 -222 46 -124 -2 -144 0 -152 14 -7 13 1
23 35 46 79 53 84 110 18 210 -22 33 -64 101 -94 150 -29 50 -56 92 -59 95 -3
3 -11 16 -18 30 -27 52 -41 55 -261 55 l-204 0 -9 24 c-7 21 -3 30 31 65 55
56 59 86 26 185 -14 44 -26 83 -26 86 1 3 -6 19 -14 35 -9 17 -11 30 -6 30 14
0 41 65 44 107 2 20 -5 64 -16 98 -10 33 -21 67 -23 75 -3 8 7 28 21 44 39 46
41 69 10 160 -68 195 -69 196 -240 190 -276 -9 -390 -13 -395 -15 -3 0 -36 -2
-75 -3 l-70 -1 -16 50 c-16 49 -16 51 7 90 24 38 30 51 69 140 25 55 35 105
22 105 -6 0 -8 3 -4 6 3 3 -9 34 -27 68 -44 83 -84 196 -80 224 9 51 10 58 16
67 10 16 -18 72 -44 88 -18 12 -249 69 -333 82 -11 2 -36 -4 -55 -12z"/>
</g>
</svg>
